<svg width="53" height="46" viewBox="0 0 53 46" fill="none" xmlns="http://www.w3.org/2000/svg">
<path d="M28.1249 23.9644L30.7865 26.5733L33.4341 29.1692L36.0827 31.7651L38.7302 34.3609L41.3788 36.9568L44.0262 39.5527L46.6752 42.1486L49.3182 44.7434L50.4972 45.9266L18.1785 45.9147L0.0309084 0.131111C0.0104084 0.0802747 -0.00699065 0.0370101 0.00280935 0.0197042C0.0190093 -0.00949938 0.10561 0.00239839 0.15101 0.00239839H3.66951L4.30901 0.618918L6.95321 3.21047L9.60191 5.80635L12.2494 8.40222L14.898 10.998L17.5466 13.5939L20.1953 16.1898L22.8439 18.7857L25.4914 21.3816L28.126 23.9644H28.1249Z" fill="#FFA300"/>
<path d="M49.3385 11.9186C50.7495 13.1744 52.2175 14.8217 52.6075 16.695C52.8395 17.8058 52.5405 18.9004 51.7875 19.7527C49.5955 22.2351 44.3215 22.7412 41.0892 22.8602L39.1785 22.9035L6.08594 0.0273126L7.92954 0.0175781C13.5654 0.117087 19.1818 0.658976 24.7387 1.72762C30.6073 2.85682 36.7246 4.65014 42.0879 7.27197C44.5935 8.49744 47.2615 10.0723 49.3365 11.9186H49.3385Z" fill="#FFA300"/>
</svg>
